<svg xmlns="http://www.w3.org/2000/svg" width="50" height="50" viewBox="0 0 100 100"><path fill="#fff" d="M19.8 54.9A.9.9 0 1 0 19.8 56.699999999999996.9.9 0 1 0 19.8 54.9zM78.9 30.3A.7.7 0 1 0 78.9 31.7.7.7 0 1 0 78.9 30.3z"/><path fill="#f1bc19" d="M76.3 11A.9.9 0 1 0 76.3 12.8.9.9 0 1 0 76.3 11zM20.3 62.6A.9.9 0 1 0 20.3 64.4.9.9 0 1 0 20.3 62.6z"/><path fill="#e6edb7" d="M49.1 11.700000000000003A37.5 37.5 0 1 0 49.1 86.7A37.5 37.5 0 1 0 49.1 11.700000000000003Z"/><path fill="#f1bc19" d="M81.7 10.1A4 4 0 1 0 81.7 18.1A4 4 0 1 0 81.7 10.1Z"/><path fill="#88ae45" d="M85.7 21.3A1.9 1.9 0 1 0 85.7 25.099999999999998A1.9 1.9 0 1 0 85.7 21.3Z"/><path fill="#fbcd59" d="M76.7 73.69999999999999A1.9 1.9 0 1 0 76.7 77.5 1.9 1.9 0 1 0 76.7 73.69999999999999zM13.5 58.6A4 4 0 1 0 13.5 66.6 4 4 0 1 0 13.5 58.6z"/><path fill="#88ae45" d="M23.8 84.89999999999999A1.9 1.9 0 1 0 23.8 88.7A1.9 1.9 0 1 0 23.8 84.89999999999999Z"/><path fill="#fff" d="M75.4 27.7A1.8 1.8 0 1 0 75.4 31.3 1.8 1.8 0 1 0 75.4 27.7zM17.3 48A2.5 2.5 0 1 0 17.3 53 2.5 2.5 0 1 0 17.3 48z"/><path fill="#3a1e0b" d="M63.4,34.6c1,2.9-0.3,6.3,1.5,8.9c0.9,1.1,1.9,2,3,2.9c1,0.9,1.9,2.2,1.8,3.4 c-0.2,1.6-2.1,2.8-2.4,4.4c-0.5,2.5,2.9,4.3,4.2,6.6c1.7,3.1-1.1,7.1-4.9,8c-3.9,0.8-7.9-0.4-10.8-3.2c-2.7-2.5-4-5.9-5-9.2 c-2-7.1-3-15.6-0.8-22.8C51.9,27.3,61.5,29,63.4,34.6z"/><path fill="#3a1e0b" d="M32.7,66.1c-1.2-0.6-2.5-1.3-2.8-2.6c-0.5-1.7,0.9-3.5,2.2-4.8s2.8-2.8,2.8-4.6c0-2.5-3-4.3-2.4-6.7 c0.5-1.9,2.8-2.7,3.9-4.3c1.5-2.3,0.3-5.2,0.3-7.9c0.2-3.5,2.2-6.6,5.3-8.3c3-1.5,6.5-1.8,9.7-0.8c2.8,0.9,5.7,3.1,5.5,6.2 c-0.3,2.8-3,4.8-5.3,6.4s-4.8,4.2-4.2,6.9c0.4,2,2.3,3.3,2.7,5.2c0.5,2.5-2.1,5.2-4.5,4.6c2.3,1.2,3.4,3.8,2.6,6.3 c-0.8,2.2-2.8,3.7-4.8,5l-3.8,2.6c-1.1,0.8-2.5,1.8-3.9,1.9C35.9,68.3,35.5,67.4,32.7,66.1z"/><path fill="#d8ad8f" d="M61.3,41.1c0.1-1.5,0.6-3.3,0.7-4l-1.1-3.3c-1.3-1.7-2.2-3.1-4-4.3c-2-1.3-4.6-0.5-6.9-1.1 C44.2,26.9,39,32.7,37.2,38l-0.1,0.1c0.2,1,0.3,2,0.4,2.9c-1.5,0-2.3,0.8-1.8,2.4c0,0,0.6,2.6,1,3.9c0.1,0.7,0.8,1.2,1.5,1.2 c0,0.8,0,1.7,0,2.5c0,1,0.3,2,0.9,2.8c1.5,2.2,9.2,7.2,11.1,7c3,0,9-5.2,10.6-7.7c0.3-0.5,0.4-1.1,0.5-1.7c0-1,0-2,0-3 c0.6-0.1,1.1-0.6,1.3-1.2c0.4-1.3,1-3.9,1-3.9C64,41.9,62.8,41.1,61.3,41.1z"/><path fill="#b2876b" d="M65.9,66.7c-0.1,0-0.2-0.1-0.3-0.1L65,66.3c-1.2-0.5-9.3-3.3-9.3-3.3c-0.5-0.1-1-0.5-1.2-1 c-0.2-1-0.3-2-0.2-3c-1.4,0.6-2.8,1.1-4.2,1.4c-1.9,0.2-5.2-2.3-5.2-2.3s-0.1,3-0.2,3.7c-0.2,0.6-0.7,1-1.3,1.1l-7.7,2.6 c-0.8,0.2-1.5,0.5-2.2,0.9c-1.6,1.1-2.8,2.8-3.3,4.7h0c0,0.1,0,0.3-0.1,0.6C30,72.3,30,72.7,30,73.2c0,0.5-0.1,7-0.1,7.5 c2.7,3.4,12.4,6,22.9,6c4.6,0,13.7-4.2,17-6.2C69.3,71.1,70.2,68,65.9,66.7z"/><path fill="#472b29" d="M38.5 49.3c-.1 0-.2-.1-.2-.2l-.8-8c0-.1.1-.2.2-.2.1 0 .2.1.2.2l.8 8C38.7 49.2 38.6 49.3 38.5 49.3 38.5 49.3 38.5 49.3 38.5 49.3zM61 48.9C61 48.9 61 48.9 61 48.9c-.1 0-.2-.1-.2-.2l.5-8.1c0-.1.1-.2.2-.2.1 0 .2.1.2.2l-.5 8.1C61.2 48.8 61.1 48.9 61 48.9z"/><path fill="#88ae45" d="M40.9,63.9c-0.2,9,17.4,9.6,16.2-0.7l4.9,1.7l1.2,19c-2.8,0.7-18.5,5.3-28.2,0.2l0.7-18.5L40.9,63.9 z"/><path fill="#472b29" d="M50.2,60.6c-1.9,0-5-1.7-5.2-1.7c-0.1-0.1-0.2-0.2-0.1-0.3c0.1-0.1,0.2-0.2,0.3-0.1 c0,0,3.4,1.8,5.1,1.7c1.5-0.3,3-0.8,4.3-1.6c0.1-0.1,0.3,0,0.3,0.1c0.1,0.1,0,0.3-0.1,0.3c-1.4,0.8-2.9,1.4-4.5,1.7 C50.4,60.6,50.3,60.6,50.2,60.6z"/><path fill="#fbcd59" d="M45 29.7A1.5 1.5 0 1 0 45 32.7A1.5 1.5 0 1 0 45 29.7Z"/><path fill="#472b29" d="M49.9,50c0.8,0,1.6-0.4,2.2-1c0.1-0.1,0.1-0.1,0-0.2l0,0 c-0.1-0.1-0.2-0.1-0.2,0c-1.1,1-2.8,1-3.9,0c0,0-0.1-0.1-0.1,0c0,0-0.1,0-0.1,0c-0.1,0.1-0.1,0.1,0,0.2C48.3,49.6,49.1,50,49.9,50z" opacity=".41"/><path fill="#472b29" d="M47.3 37.7l.5-1c-2.3-.5-4.7-.5-7 .2l.7 1C43.3 37.3 45.3 37.2 47.3 37.7zM58.5 37.7l.5-1c-2.3-.5-4.7-.5-7 .2l.7 1C54.6 37.3 56.6 37.2 58.5 37.7zM44 39.9c-.6 0-1.1.4-1.3.9.1 0 .1 0 .2 0 .5.1.9.5.8 1 0 .4-.4.8-.8.8-.1 0-.3 0-.4-.1.1.7.7 1.3 1.5 1.4 1.1-.2 1.8-1.3 1.6-2.3C45.4 40.7 44.8 40 44 39.9zM55.8 39.9c-.5 0-.9.3-1.2.7.1 0 .2-.1.3-.1.5.1.9.5.8 1 0 .4-.4.8-.8.8-.3 0-.5-.2-.7-.4.2.8 1.1 1.4 1.9 1.1s1.4-1.1 1.1-1.9C57.1 40.4 56.5 39.9 55.8 39.9L55.8 39.9z"/><path fill="#cd9480" d="M42.5 46.1A2.3 2.3 0 1 0 42.5 50.699999999999996 2.3 2.3 0 1 0 42.5 46.1zM57.4 46.1A2.3 2.3 0 1 0 57.4 50.699999999999996 2.3 2.3 0 1 0 57.4 46.1z"/><path fill="#f1bc19" d="M49.6 65.1A1 1 0 1 0 49.6 67.1A1 1 0 1 0 49.6 65.1Z"/><path fill="#f1bc19" d="M49.6,65.2c-2.5,0-5.1-0.7-5.1-1.9c0-0.1,0.1-0.3,0.3-0.3s0.3,0.1,0.3,0.3c0,0.7,2,1.4,4.6,1.4 s4.6-0.8,4.6-1.4c0-0.1,0.1-0.3,0.3-0.3s0.3,0.1,0.3,0.3C54.7,64.5,52.1,65.2,49.6,65.2z"/><path fill="#6d1b18" d="M46.5,53.5c0,0.2-0.1,0.3-0.1,0.5c0,1.4,1.5,2.5,3.5,2.5s3.5-1.1,3.5-2.5c0-0.2,0-0.3-0.1-0.5H46.5z"/><path fill="#ee3e54" d="M51.8,56.2c-1.1-0.8-2.6-0.8-3.6,0C49.3,56.7,50.6,56.7,51.8,56.2z"/><path fill="#fdfcef" d="M47.5,53.5L47.5,53.5V54c0,0.4,0.5,0.7,1.1,0.7h2.6c0.6,0,1.1-0.3,1.1-0.7v-0.4l0,0L47.5,53.5z"/><path fill="#472b29" d="M49.9,56.8c-2,0-3.7-1.2-3.7-2.7c0-0.2,0-0.4,0.1-0.5c0-0.1,0.1-0.1,0.2-0.1h6.8 c0.1,0,0.2,0.1,0.2,0.2c0,0.2,0.1,0.4,0.1,0.5C53.6,55.5,51.9,56.8,49.9,56.8z M46.7,53.8c0,0.1,0,0.2,0,0.3c0,1.3,1.5,2.3,3.3,2.3 c1.8,0,3.2-1,3.2-2.3c0-0.1,0-0.2,0-0.3H46.7z"/><path fill="#472b29" d="M49.2,87.2C49.1,87.2,49.1,87.2,49.2,87.2c-7,0-13.8-2.1-19.6-5.9c-0.1-0.1-0.2-0.2-0.2-0.4 c0-0.5-0.9-12.1,4-14.6c0.7-0.4,1.5-0.7,2.3-1l7.7-2.6c0.5-0.1,0.8-0.4,0.9-0.8c0.1-0.4,0.2-2,0.2-2.9c-2.3-1.4-4.9-3.4-5.8-4.7 c-0.6-0.9-1-2-0.9-3.1l0-2c-0.7-0.2-1.3-0.8-1.5-1.5c-0.4-1.2-1-3.8-1-3.9c-0.4-1.1-0.1-1.8,0.2-2.2c0.2-0.3,0.7-0.7,1.6-0.8 c0-0.2,0-0.3,0-0.5c-0.3-0.6-0.4-1.1-0.5-1.8c0-6.6,5.8-11.8,13-11.8c7.1,0,12.9,5.3,12.9,11.8c0,0.7-0.2,1.3-0.5,1.9 c0,0.1,0,0.2,0,0.3c0.8,0.1,1.5,0.4,1.9,1c0.3,0.4,0.6,1.1,0.2,2.1c-0.1,0.6-0.7,3-1,3.9c-0.1,0.6-0.6,1.2-1.2,1.4v2.6 c0,0.7-0.2,1.3-0.5,1.9c-1.8,2.4-3.9,4.4-6.4,6c0,0.8,0,1.5,0.2,2.3c0.1,0.3,0.5,0.6,0.9,0.7c0.4,0.1,8.1,2.8,9.3,3.3l0.9,0.3 c3.8,1.2,3.9,6.2,4,13l0,1.1c0,0.2-0.1,0.3-0.2,0.4C63.8,85,56.6,87.2,49.2,87.2z M49.1,86.2C49.1,86.2,49.1,86.2,49.1,86.2 c7.2,0,14.1-2.1,20.1-6l0-0.9c-0.2-6.7-0.3-11-3.4-12.1l-1-0.4c-1.2-0.5-9.1-3.2-9.2-3.3c-0.7-0.2-1.2-0.7-1.5-1.4 c-0.3-1-0.3-2-0.3-2.9c0-0.2,0.1-0.3,0.2-0.4c2.5-1.6,4.6-3.5,6.3-5.9c0.2-0.4,0.3-0.9,0.4-1.4l0-3c0-0.2,0.2-0.5,0.4-0.5 c0.4-0.1,0.8-0.4,0.8-0.8c0.4-1.2,1-3.7,1-3.9c0.2-0.6,0.2-1-0.1-1.3c-0.3-0.4-0.9-0.6-1.6-0.6c-0.1,0-0.3,0-0.4-0.1 c-0.1-0.1-0.1-0.2-0.1-0.4c0-0.8,0-1.2,0.2-1.4c0.2-0.4,0.3-0.9,0.3-1.4c0-5.9-5.3-10.8-11.9-10.8c-6.6,0-12,4.8-12,10.8 c0,0.5,0.2,1,0.4,1.4c0,0.1,0,0.1,0,0.2c0,0.4,0.1,0.7,0.1,1.1c0,0.1,0,0.3-0.1,0.4s-0.2,0.2-0.4,0.2c-0.4,0-1,0.1-1.3,0.4 c-0.3,0.4-0.2,0.9,0,1.3c0,0.1,0.6,2.7,1,3.9c0.1,0.5,0.5,0.9,1,0.9c0.3,0,0.5,0.2,0.5,0.5v2.5c0,0.9,0.2,1.8,0.8,2.5 c0.7,1,3.1,2.9,5.8,4.6c0.2,0.1,0.2,0.3,0.2,0.5c-0.1,1.4-0.2,2.8-0.3,3.3c-0.3,0.8-0.9,1.4-1.7,1.5l-7.7,2.6 c-0.7,0.2-1.4,0.5-2.1,0.9c-3.5,1.8-3.7,10.1-3.5,13.4C35.9,84.2,42.4,86.2,49.1,86.2C49.1,86.2,49.1,86.2,49.1,86.2z"/><path fill="#ee3e54" d="M38.5 48.4c0 .5-.4.8-.8.8s-.8-.4-.8-.8.4-.8.8-.8S38.5 47.9 38.5 48.4L38.5 48.4zM62 47.900000000000006A.8.8 0 1 0 62 49.5.8.8 0 1 0 62 47.900000000000006z"/><path fill="#512c2b" d="M45.4 64.6C45 63.1 44.4 61.5 43 61c-2.4-1-2.8-3.3-3-5.3-.1 0-1-.9-1.2-1.1-.6 1.1-1.2 2.1-1.9 3.1-.8 1.2-1.1 2.6-.8 4 .6 1.9 2.6 2.8 3.3 4.6.4 1.4.3 2.9-.3 4.2-.6 1.3-.9 2.7-1 4.1 0 1.4 1 3 2.3 3-.6-1.6-.3-3.4.7-4.7.9-1.3 2.1-2.4 3.1-3.7C45.3 68 45.8 66.3 45.4 64.6zM53.3 32.3c-.3-1.5-2.3-1.7-3.4-.7s-1.5 2.5-2.1 3.9c-1.1 2.4-3 4.4-5.4 5.7-1.7.8-3.5 1.2-5.2 2-1.8.8-3.1 2.5-3.4 4.4-.2 2 1.8 4.1 3.5 3.3-3 1.2-6.5-.3-7.8-3.3-1.2-3.1-.9-7.2 1.8-8.8 1.2-.8 2.4-1.1 3.4-2.2 1.2-1.3 1.4-3.4 1.9-5.2 1.4-5.3 7.7-9 12.6-8.4 2.2.2 4.2 1.5 5.4 3.4C55.7 28.4 55.1 30.9 53.3 32.3z"/><path fill="#512c2b" d="M67.2,39c0.4-0.4,0,3.3-1.1,4.2c-1.1,0.9-2.7,1-4,0.3c-1.6-1-2.2-3.3-2.5-5.2 c-0.2-1.7-0.9-3.3-2.2-4.5c-1.1-1.1-2.7-2.1-4.1-1.4c-0.5-2.1,1.5-4.3,3.6-4.7c2-0.3,3.9,0.6,5,2.2c1.1,1.6,1.7,3.5,1.7,5.5 c0,0.8,0.2,1.5,0.4,2.3c0.3,0.7,0.4,2.2,1,2.6C66.4,41.1,66.8,39.4,67.2,39z"/><g><path fill="#fdfcee" d="M69.7 57.699999999999996A14.4 14.4 0 1 0 69.7 86.5A14.4 14.4 0 1 0 69.7 57.699999999999996Z"/><path fill="#472b29" d="M69.7,86.9c-8.2,0-14.8-6.6-14.8-14.8c0-8.2,6.6-14.8,14.8-14.8s14.8,6.6,14.8,14.8 C84.5,80.2,77.8,86.9,69.7,86.9z M69.7,58c-7.8,0-14.1,6.3-14.1,14.1s6.3,14.1,14.1,14.1s14.1-6.3,14.1-14.1S77.4,58,69.7,58z"/></g><g><path fill="#ee3e54" d="M69.7 60.199999999999996A11.9 11.9 0 1 0 69.7 84A11.9 11.9 0 1 0 69.7 60.199999999999996Z"/><path fill="#472b29" d="M69.7,84.2c-6.7,0-12.2-5.5-12.2-12.2c0-6.7,5.5-12.2,12.2-12.2s12.2,5.5,12.2,12.2 C81.8,78.8,76.4,84.2,69.7,84.2z M69.7,60.4c-6.4,0-11.7,5.2-11.7,11.7s5.2,11.7,11.7,11.7s11.7-5.2,11.7-11.7S76.1,60.4,69.7,60.4 z"/></g><path fill="#f4989e" d="M69.6,61.9c5.1,0,9.7,3.2,11.5,8c-1.2-6.4-7.4-10.5-13.7-9.3 c-4.7,0.9-8.4,4.6-9.3,9.3C59.9,65.1,64.5,61.9,69.6,61.9z" opacity=".79"/><g><path fill="#f1bc19" d="M69.3 64.7L73.7 73.5 70.6 73.5 70.6 79.4 65.6 71 69.3 71z"/><path fill="#472b29" d="M70.6,79.8c-0.1,0-0.3-0.1-0.3-0.2l-5-8.5c-0.1-0.1-0.1-0.3,0-0.4c0.1-0.1,0.2-0.2,0.3-0.2h3.3v-5.9 c0-0.2,0.1-0.3,0.3-0.4c0.2,0,0.3,0,0.4,0.2l4.5,8.9c0.1,0.1,0.1,0.3,0,0.4c-0.1,0.1-0.2,0.2-0.3,0.2H71v5.5 C71,79.6,70.9,79.8,70.6,79.8C70.7,79.8,70.7,79.8,70.6,79.8z M66.2,71.4l4,6.7v-4.5c0-0.2,0.2-0.4,0.4-0.4h2.5l-3.5-6.9V71 c0,0.2-0.2,0.4-0.4,0.4H66.2z"/></g></svg>