<svg xmlns="http://www.w3.org/2000/svg"  viewBox="0 0 100 100" width="50px" height="50px"><path fill="#ee3e54" d="M12.875,27.958c-1.105,0-2,0.895-2,2s0.895,2,2,2s2-0.895,2-2S13.98,27.958,12.875,27.958z"/><path fill="#f1bc19" d="M76.875,12.958c-0.551,0-1,0.449-1,1s0.449,1,1,1s1-0.449,1-1S77.426,12.958,76.875,12.958z"/><path fill="#fce0a2" d="M49.875,13.958c-20.434,0-37,16.566-37,37s16.566,37,37,37s37-16.566,37-37 S70.309,13.958,49.875,13.958z"/><path fill="#f1bc19" d="M82.875,11.958c-2.211,0-4,1.789-4,4s1.789,4,4,4s4-1.789,4-4S85.086,11.958,82.875,11.958z"/><path fill="#ee3e54" d="M86.875,22.958c-1.105,0-2,0.895-2,2s0.895,2,2,2s2-0.895,2-2S87.98,22.958,86.875,22.958z"/><path fill="#fbcd59" d="M80.875,74.958c-1.105,0-2,0.895-2,2s0.895,2,2,2s2-0.895,2-2S81.98,74.958,80.875,74.958z M14.875,59.958c-2.211,0-4,1.789-4,4c0,2.211,1.789,4,4,4s4-1.789,4-4C18.875,61.747,17.086,59.958,14.875,59.958z"/><path fill="#ee3e54" d="M24.875,85.958c-1.105,0-2,0.895-2,2s0.895,2,2,2s2-0.895,2-2S25.98,85.958,24.875,85.958z"/><path fill="#fff" d="M20.375,37.958c-1.379,0-2.5,1.121-2.5,2.5s1.121,2.5,2.5,2.5s2.5-1.121,2.5-2.5 S21.754,37.958,20.375,37.958z"/><path fill="#f1bc19" d="M20.875,65.958c-0.551,0-1,0.449-1,1s0.449,1,1,1s1-0.449,1-1S21.426,65.958,20.875,65.958z"/><path fill="#fff" d="M79.875,32.958c-0.551,0-1,0.449-1,1s0.449,1,1,1s1-0.449,1-1S80.426,32.958,79.875,32.958z"/><g><path fill="#cdcbbd" d="M29.509,69.3c-0.503,0-1.126-0.145-1.482-1.275c-0.274-0.872-0.273-1.945-0.272-2.655L27.7,36.796 v-2.822c0-1.694,1.321-3.072,2.945-3.072h17.646c1.659,0,3.009,1.455,3.009,3.244v1.459c0,1.244,0.968,2.257,2.157,2.257h16.086 c0.417,0,0.757,0.385,0.757,0.857v24.565c0,0.334,0.013,0.748,0.026,1.214c0.05,1.703,0.131,3.46-0.436,4.802H29.509z"/><path fill="#472b29" d="M48.291,31.601c1.273,0,2.309,1.141,2.309,2.544v1.458c0,1.631,1.282,2.957,2.857,2.957 l16.076-0.002c0.011,0.005,0.067,0.053,0.067,0.159v24.566c0,0.339,0.012,0.761,0.026,1.234c0.038,1.287,0.11,2.738-0.236,4.082 H29.51c-1.072,0-1.056-2.322-1.056-2.322L28.4,36.797v-2.824c0-1.308,1.007-2.372,2.245-2.372H48.291 M48.291,30.201H30.645 c-2.005,0-3.645,1.698-3.645,3.772v2.824l0.054,29.484C27.054,67.704,27,70,29.509,70H69c1,0,2-3,2-6.715V38.719 c0-0.86-0.652-1.557-1.457-1.557H53.457c-0.805,0-1.457-0.697-1.457-1.557v-1.458C52,31.977,50.331,30.201,48.291,30.201 L48.291,30.201z"/><path fill="#472b29" d="M41.5,35h-11c-0.276,0-0.5-0.224-0.5-0.5s0.224-0.5,0.5-0.5h11c0.276,0,0.5,0.224,0.5,0.5 S41.776,35,41.5,35z"/><path fill="#472b29" d="M48.5,35h-4c-0.276,0-0.5-0.224-0.5-0.5s0.224-0.5,0.5-0.5h4c0.276,0,0.5,0.224,0.5,0.5 S48.776,35,48.5,35z"/><path fill="#fdfcee" d="M29.478,69.3c-0.608,0-1.106,0.478-1.14-0.179l5.534-25.732c0.09-0.402,0.447-0.689,0.86-0.689 h40.116c0.564,0,0.982,0.522,0.86,1.072l-5.401,24.297c-0.011,0.051-0.017,0.102-0.017,0.153c0,0.295-0.106,0.57-0.3,0.775 c-0.184,0.194-0.426,0.302-0.681,0.302L29.478,69.3L29.478,69.3z"/><g><path fill="#472b29" d="M74.728,43.4c0.178,0,0.31,0.165,0.271,0.338l-5.375,24.18c-0.04,0.188-0.248,0.682-0.773,0.682 H29.825c-0.35,0-0.61-0.32-0.532-0.66c0.878-3.863,5.196-24.1,5.196-24.1c0.057-0.257,0.285-0.439,0.548-0.439H74.728z M34.892,42 c-0.833,0-1.554,0.578-1.737,1.39l-5.342,24.828c0,1.076,0.648,1.781,1.665,1.781h39.831c0.929,0,1.456-0.827,1.681-1.778 l5.408-24.327C76.614,42.923,75.874,42,74.878,42H34.892z"/></g></g><g><path fill="#ee3e54" d="M53.001,51.043c-4.357-6.207-10.451-3.382-10.451,2.561c0,5.449,7.286,10.089,10.451,11.848 c3.165-1.759,10.451-6.4,10.451-11.848C63.452,47.66,57.358,44.836,53.001,51.043z"/></g><g><path fill="#472b29" d="M53.001,66c-0.092,0-0.185-0.023-0.267-0.069C49.506,64.138,42,59.347,42,53.605 c0-3.103,1.578-5.605,4.018-6.373c2.374-0.746,4.944,0.332,6.983,2.895c2.038-2.562,4.609-3.641,6.982-2.895 C62.423,48,64,50.501,64,53.605c0,5.742-7.506,10.534-10.734,12.326C53.185,65.977,53.093,66,53.001,66z M47.513,48.097 c-0.393,0-0.783,0.059-1.165,0.18c-1.974,0.62-3.25,2.712-3.25,5.328c0,5.016,6.717,9.416,9.902,11.219 c3.185-1.803,9.902-6.203,9.902-11.219c0-2.616-1.276-4.707-3.25-5.328c-2.073-0.652-4.39,0.501-6.202,3.08 c-0.207,0.294-0.694,0.294-0.9,0C51.072,49.251,49.256,48.097,47.513,48.097z"/></g></svg>