<svg xmlns="http://www.w3.org/2000/svg" xmlns:xlink="http://www.w3.org/1999/xlink" viewBox="0,0,256,256" width="50px" height="50px" fill-rule="nonzero"><g fill="none" fill-rule="nonzero" stroke="none" stroke-width="1" stroke-linecap="butt" stroke-linejoin="miter" stroke-miterlimit="10" stroke-dasharray="" stroke-dashoffset="0" font-family="none" font-weight="none" font-size="none" text-anchor="none" style="mix-blend-mode: normal"><g transform="scale(2.56,2.56)"><path d="M19.714,55.761c-0.48932,0 -0.886,0.39668 -0.886,0.886c0,0.48932 0.39668,0.886 0.886,0.886c0.48932,0 0.886,-0.39668 0.886,-0.886c0,-0.48932 -0.39668,-0.886 -0.886,-0.886zM78.764,31.092c-0.37776,0 -0.684,0.30624 -0.684,0.684c0,0.37776 0.30624,0.684 0.684,0.684c0.37776,0 0.684,-0.30624 0.684,-0.684c0,-0.37776 -0.30624,-0.684 -0.684,-0.684z" fill="#ffffff"></path><path d="M76.134,11.856c-0.48932,0 -0.886,0.39668 -0.886,0.886c0,0.48932 0.39668,0.886 0.886,0.886c0.48932,0 0.886,-0.39668 0.886,-0.886c0,-0.48932 -0.39668,-0.886 -0.886,-0.886zM20.209,63.435c-0.48932,0 -0.886,0.39668 -0.886,0.886c0,0.48932 0.39668,0.886 0.886,0.886c0.48932,0 0.886,-0.39668 0.886,-0.886c0,-0.48932 -0.39668,-0.886 -0.886,-0.886z" fill="#f1bc19"></path><path d="M49.249,12.528c-20.6803,0 -37.445,16.7647 -37.445,37.445c0,20.6803 16.7647,37.445 37.445,37.445c20.6803,0 37.445,-16.7647 37.445,-37.445c0,-20.6803 -16.7647,-37.445 -37.445,-37.445z" fill="#f9dbd2"></path><path d="M81.575,10.89c-2.213,0 -4.007,1.794 -4.007,4.007c0,2.213 1.794,4.007 4.007,4.007c2.213,0 4.007,-1.794 4.007,-4.007c0,-2.213 -1.794,-4.007 -4.007,-4.007z" fill="#f1bc19"></path><path d="M85.583,22.084c-1.0405,0 -1.884,0.8435 -1.884,1.884c0,1.0405 0.8435,1.884 1.884,1.884c1.0405,0 1.884,-0.8435 1.884,-1.884c0,-1.0405 -0.8435,-1.884 -1.884,-1.884z" fill="#ee8670"></path><path d="M76.597,74.499c-1.0405,0 -1.884,0.8435 -1.884,1.884c0,1.0405 0.8435,1.884 1.884,1.884c1.0405,0 1.884,-0.8435 1.884,-1.884c0,-1.0405 -0.8435,-1.884 -1.884,-1.884zM13.436,59.428c-2.213,0 -4.007,1.794 -4.007,4.007c0,2.213 1.794,4.007 4.007,4.007c2.213,0 4.007,-1.794 4.007,-4.007c0,-2.213 -1.794,-4.007 -4.007,-4.007z" fill="#fbcd59"></path><path d="M23.675,85.686c-1.0405,0 -1.884,0.8435 -1.884,1.884c0,1.0405 0.8435,1.884 1.884,1.884c1.0405,0 1.884,-0.8435 1.884,-1.884c0,-1.0405 -0.8435,-1.884 -1.884,-1.884z" fill="#ee8670"></path><path d="M75.249,28.467c-0.9919,0 -1.796,0.8041 -1.796,1.796c0,0.9919 0.8041,1.796 1.796,1.796c0.9919,0 1.796,-0.8041 1.796,-1.796c0,-0.9919 -0.8041,-1.796 -1.796,-1.796zM17.177,48.785c-1.40336,0 -2.541,1.13764 -2.541,2.541c0,1.40336 1.13764,2.541 2.541,2.541c1.40336,0 2.541,-1.13764 2.541,-2.541c0,-1.40336 -1.13764,-2.541 -2.541,-2.541z" fill="#ffffff"></path><path d="M61.462,42.153c0.132,-1.518 -0.322,-2.821 -0.224,-3.575c-0.002,-0.002 -0.004,-0.002 -0.006,-0.004c-1.333,-1.647 -2.172,-3.593 -4.009,-4.767c-2.018,-1.29 -4.46,-2.244 -6.78,-2.828c-5.699,-1.434 -11.304,2.738 -13.066,8.127c-0.013,0.041 -0.038,0.068 -0.057,0.101c0.212,1.203 0.375,2.333 0.372,2.94c-1.541,-0.03 -2.325,0.811 -1.794,2.431c0.007,0.023 0.598,2.632 0.995,3.883c0.267,0.841 0.756,1.177 1.478,1.208c0.007,0.835 0.009,1.669 -0.027,2.502c-0.045,1.048 0.271,1.962 0.859,2.814c1.503,2.176 9.226,7.201 11.094,7.016c3.03,0.005 9.017,-5.141 10.589,-7.7c0.261,-0.425 0.466,-1.19 0.471,-1.688c0.01,-0.988 0.01,-1.976 0.012,-2.963c0.608,-0.085 1.029,-0.432 1.269,-1.19c0.397,-1.251 0.988,-3.86 0.995,-3.883c0.534,-1.62 -0.63,-2.455 -2.171,-2.424z" fill="#e9c2a7"></path><path d="M66.078,67.723c-0.088,-0.027 -0.206,-0.071 -0.34,-0.123c-0.154,-0.068 -0.348,-0.148 -0.576,-0.238c-1.229,-0.528 -9.263,-3.267 -9.263,-3.267c-0.602,-0.155 -0.993,-0.591 -1.22,-1.082c-0.374,-0.811 -0.229,-2.914 -0.229,-2.914c0,0 -2.321,1.062 -4.225,1.424c-1.868,0.185 -5.152,-2.272 -5.152,-2.272c0,0 -0.094,3.037 -0.221,3.712c-0.1,0.53 -0.661,0.978 -1.263,1.133l-7.739,2.583c-0.775,0.206 -1.519,0.5 -2.173,0.911c-1.986,1.246 -2.882,3.207 -3.274,4.681c-0.017,-0.002 -0.033,-0.002 -0.05,-0.004c-0.025,0.103 -0.056,0.321 -0.09,0.607c-0.141,0.715 -0.158,1.227 -0.139,1.346c-0.044,0.464 -0.122,7.164 -0.167,7.701c7.213,5.461 12.041,4.663 22.547,5.43c4.348,0.317 12.323,-3.464 17.376,-6.102c-0.44,-9.378 0.459,-12.218 -3.802,-13.526z" fill="#e6bca0"></path><g fill="#f4989e" opacity="0.3"><path d="M42.68,48.823c-1.08579,0 -1.966,0.89364 -1.966,1.996c0,1.10236 0.88021,1.996 1.966,1.996c1.08579,0 1.966,-0.89364 1.966,-1.996c0,-1.10236 -0.88021,-1.996 -1.966,-1.996zM57.802,48.823c-1.08579,0 -1.966,0.89364 -1.966,1.996c0,1.10236 0.88021,1.996 1.966,1.996c1.08579,0 1.966,-0.89364 1.966,-1.996c0,-1.10236 -0.88021,-1.996 -1.966,-1.996z" opacity="0.8"></path></g><path d="M38.654,50.387c-0.101,0 -0.188,-0.077 -0.198,-0.18l-0.823,-8.044c-0.012,-0.11 0.068,-0.208 0.178,-0.22c0.118,-0.009 0.208,0.07 0.219,0.179l0.823,8.044c0.012,0.11 -0.068,0.208 -0.178,0.22c-0.007,0 -0.014,0.001 -0.021,0.001zM61.156,49.952c-0.004,0 -0.008,0 -0.012,-0.001c-0.11,-0.006 -0.194,-0.102 -0.188,-0.211l0.492,-8.071c0.006,-0.106 0.095,-0.188 0.2,-0.188c0.004,0 0.008,0 0.012,0.001c0.11,0.006 0.194,0.102 0.188,0.211l-0.492,8.071c-0.007,0.106 -0.095,0.188 -0.2,0.188z" fill="#472b29"></path><path d="M46.632,54.895c-0.04,0.155 -0.063,0.314 -0.063,0.477c0,1.397 1.545,2.529 3.451,2.529c1.906,0 3.451,-1.132 3.451,-2.529c0,-0.163 -0.023,-0.322 -0.063,-0.477z" fill="#6d1b18"></path><path d="M51.843,57.512c-0.303,-0.354 -1.005,-0.602 -1.823,-0.602c-0.818,0 -1.52,0.248 -1.823,0.602c0.53,0.243 1.152,0.39 1.823,0.39c0.672,-0.001 1.293,-0.147 1.823,-0.39z" fill="#ee3e54"></path><path d="M47.621,54.895c-0.002,0.015 -0.007,0.029 -0.007,0.044v0.427c0,0.374 0.493,0.68 1.095,0.68h2.623c0.602,0 1.095,-0.306 1.095,-0.68v-0.426c0,-0.015 -0.006,-0.03 -0.007,-0.044h-4.799z" fill="#fdfcef"></path><path d="M50.02,58.102c-2.013,0 -3.651,-1.225 -3.651,-2.729c0,-0.173 0.024,-0.351 0.07,-0.527c0.023,-0.088 0.103,-0.149 0.193,-0.149h6.776c0.091,0 0.17,0.062 0.193,0.149c0.046,0.177 0.07,0.354 0.07,0.527c0.001,1.504 -1.637,2.729 -3.651,2.729zM46.793,55.096c-0.017,0.093 -0.024,0.186 -0.024,0.276c0,1.284 1.458,2.329 3.251,2.329c1.793,0 3.251,-1.045 3.251,-2.329c0,-0.091 -0.008,-0.184 -0.024,-0.276z" fill="#472b29"></path><path d="M50.02,53.02c0.77,0 1.518,-0.336 1.999,-0.9c0.048,-0.057 0.042,-0.142 -0.014,-0.191v0c-0.056,-0.048 -0.141,-0.043 -0.191,0.013c-0.392,0.448 -1.046,0.705 -1.793,0.705c-0.748,0 -1.402,-0.257 -1.794,-0.705c-0.027,-0.031 -0.064,-0.046 -0.102,-0.046c-0.031,0 -0.063,0.011 -0.089,0.033c-0.056,0.049 -0.063,0.134 -0.014,0.191c0.48,0.563 1.228,0.9 1.998,0.9zM50.908,59.746c0.043,0 0.079,-0.041 0.079,-0.089c0,-0.048 -0.036,-0.089 -0.079,-0.089h-1.776c-0.043,0 -0.079,0.041 -0.079,0.089c0,0.048 0.036,0.089 0.079,0.089z" fill="#472b29" opacity="0.41"></path><path d="M47.975,40.974c-1.976,-0.674 -5.377,-0.997 -7.422,-0.778c-0.116,0.013 -0.203,0.091 -0.207,0.188c-0.004,0.096 0.076,0.183 0.19,0.206c0.041,0.008 5.075,0.877 6.643,1.43c0.027,0.009 0.054,0.015 0.082,0.016c0.079,0.004 0.158,-0.024 0.207,-0.078l0.615,-0.677c0.045,-0.049 0.059,-0.114 0.038,-0.174c-0.022,-0.059 -0.076,-0.109 -0.146,-0.133zM51.974,40.779c2.008,-0.57 5.421,-0.716 7.452,-0.39c0.115,0.019 0.198,0.102 0.197,0.199c-0.001,0.096 -0.085,0.179 -0.201,0.196c-0.041,0.006 -5.114,0.611 -6.709,1.083c-0.027,0.008 -0.055,0.012 -0.082,0.012c-0.08,0 -0.156,-0.032 -0.203,-0.089l-0.579,-0.709c-0.042,-0.052 -0.053,-0.117 -0.029,-0.176c0.026,-0.059 0.082,-0.106 0.154,-0.126z" fill="#512c2b"></path><path d="M44.426,43.049c-0.505,0 -0.948,0.33 -1.205,0.828c0.064,-0.02 0.13,-0.033 0.199,-0.033c0.414,0 0.75,0.37 0.75,0.827c0,0.457 -0.336,0.827 -0.75,0.827c-0.136,0 -0.261,-0.043 -0.371,-0.112c0.177,0.749 0.726,1.295 1.376,1.295c0.793,0 1.437,-0.813 1.437,-1.816c0.001,-1.003 -0.643,-1.816 -1.436,-1.816zM55.419,43.049c-0.431,0 -0.817,0.241 -1.08,0.621c0.082,-0.034 0.171,-0.055 0.264,-0.055c0.414,0 0.75,0.37 0.75,0.827c0,0.457 -0.336,0.827 -0.75,0.827c-0.257,0 -0.483,-0.143 -0.618,-0.36c0.019,0.982 0.653,1.772 1.435,1.772c0.793,0 1.437,-0.813 1.437,-1.816c-0.001,-1.003 -0.645,-1.816 -1.438,-1.816z" fill="#472b29"></path><path d="M41.308,65.04c1.533,1.217 12.936,1.849 16.113,-0.549l4.851,1.646l1.381,18.432c0,0 -11.317,6.183 -28.288,0.208l0.741,-18.102z" fill="#ee8670"></path><g fill="#472b29"><path d="M50.368,61.694c-1.908,0 -5.011,-1.673 -5.147,-1.747c-0.122,-0.066 -0.167,-0.218 -0.101,-0.339c0.066,-0.123 0.219,-0.166 0.339,-0.101c0.034,0.018 3.389,1.829 5.106,1.679c1.745,-0.146 4.293,-1.588 4.319,-1.602c0.121,-0.07 0.272,-0.027 0.341,0.093c0.068,0.12 0.026,0.272 -0.094,0.341c-0.108,0.063 -2.668,1.511 -4.524,1.666c-0.077,0.007 -0.157,0.01 -0.239,0.01z"></path></g><g fill="#472b29"><path d="M49.249,87.945c-6.691,0 -13.279,-1.775 -19.05,-5.134c-0.034,-0.021 -0.065,-0.044 -0.093,-0.07l-0.185,-0.169c-0.109,-0.098 -0.219,-0.196 -0.325,-0.306c-0.101,-0.104 -0.151,-0.246 -0.139,-0.39c0.002,-0.055 -0.002,-0.202 -0.007,-0.424c-0.194,-7.932 1.165,-12.695 4.04,-14.157c0.632,-0.321 1.419,-0.722 2.271,-0.948l7.709,-2.574c0.479,-0.125 0.873,-0.45 0.93,-0.751c0.063,-0.331 0.154,-1.407 0.249,-2.906c-2.308,-1.454 -4.938,-3.423 -5.815,-4.693c-0.685,-0.992 -0.994,-2.013 -0.946,-3.12c0.029,-0.681 0.033,-1.363 0.029,-2.045c-0.715,-0.169 -1.194,-0.661 -1.457,-1.493c-0.232,-0.73 -0.559,-2.002 -0.973,-3.779l-0.031,-0.13c-0.372,-1.131 -0.108,-1.838 0.18,-2.228c0.244,-0.329 0.708,-0.708 1.574,-0.806c-0.013,-0.142 -0.03,-0.303 -0.051,-0.481c-0.33,-0.59 -0.472,-1.664 -0.472,-1.762c0,-6.503 5.789,-11.793 12.905,-11.793c7.116,0 12.905,5.29 12.905,11.793c0,0.016 -0.092,1.244 -0.446,1.868c-0.003,0.054 -0.005,0.127 -0.009,0.21c-0.002,0.055 -0.005,0.111 -0.007,0.171c0.827,0.088 1.5,0.423 1.893,0.953c0.29,0.392 0.564,1.074 0.226,2.105l-0.021,0.099c-0.414,1.777 -0.741,3.049 -0.972,3.779c-0.233,0.735 -0.652,1.215 -1.247,1.429v0.203c-0.001,0.792 -0.003,1.583 -0.011,2.375c-0.006,0.604 -0.245,1.457 -0.545,1.944c-1.057,1.721 -3.825,4.331 -6.378,6.031c-0.023,1.257 0.084,1.963 0.198,2.209c0.138,0.3 0.404,0.683 0.891,0.808c0.365,0.123 8.103,2.763 9.335,3.293c0.221,0.086 0.421,0.169 0.579,0.238c0.103,0.04 0.209,0.079 0.288,0.104c3.815,1.171 3.93,6.117 4.09,12.962l0.021,0.875c0.004,0.172 -0.081,0.334 -0.224,0.429c-6.215,4.109 -13.444,6.281 -20.909,6.281zM30.748,81.974c5.608,3.252 12.005,4.972 18.501,4.972c7.176,0 14.127,-2.062 20.123,-5.964l-0.014,-0.598c-0.156,-6.666 -0.258,-11.069 -3.386,-12.03c-0.099,-0.03 -0.229,-0.077 -0.376,-0.136c-0.167,-0.072 -0.355,-0.149 -0.576,-0.237c-1.211,-0.521 -9.161,-3.231 -9.241,-3.259c-0.64,-0.164 -1.19,-0.646 -1.513,-1.347c-0.232,-0.502 -0.327,-1.483 -0.283,-2.918c0.005,-0.164 0.09,-0.314 0.228,-0.404c2.761,-1.789 5.416,-4.435 6.292,-5.86c0.207,-0.337 0.392,-1.006 0.396,-1.431c0.008,-0.789 0.009,-1.578 0.011,-2.367l0.001,-0.593c0,-0.249 0.184,-0.46 0.431,-0.494c0.323,-0.045 0.651,-0.179 0.862,-0.846c0.224,-0.705 0.543,-1.951 0.951,-3.703c0.028,-0.12 0.047,-0.188 0.048,-0.192c0.162,-0.493 0.135,-0.896 -0.083,-1.19c-0.274,-0.372 -0.872,-0.612 -1.608,-0.57c-0.152,-0.024 -0.278,-0.056 -0.375,-0.158c-0.097,-0.104 -0.145,-0.244 -0.133,-0.385c0.017,-0.199 0.027,-0.449 0.036,-0.646c0.011,-0.262 0.022,-0.514 0.151,-0.669c0.099,-0.262 0.303,-0.949 0.303,-1.368c0,-5.951 -5.34,-10.793 -11.905,-10.793c-6.565,0 -11.905,4.842 -11.905,10.793c0,0.455 0.296,1.198 0.38,1.372c0.041,0.062 0.068,0.134 0.078,0.212c0.062,0.501 0.092,0.873 0.091,1.138c0,0.134 -0.055,0.262 -0.15,0.355c-0.096,0.095 -0.221,0.149 -0.359,0.143c-0.602,-0.016 -1.073,0.139 -1.285,0.424c-0.268,0.362 -0.161,0.935 -0.024,1.352v0c0,0 0.018,0.067 0.045,0.184c0.508,2.183 0.798,3.219 0.952,3.704c0.218,0.688 0.553,0.84 1.023,0.861c0.265,0.012 0.475,0.229 0.478,0.495c0.007,0.842 0.009,1.686 -0.027,2.527c-0.038,0.882 0.214,1.702 0.771,2.509c0.706,1.021 3.08,2.901 5.773,4.57c0.157,0.097 0.247,0.271 0.236,0.455c-0.062,1.01 -0.18,2.784 -0.283,3.328c-0.151,0.801 -0.927,1.343 -1.629,1.524l-7.706,2.573c-0.779,0.208 -1.483,0.565 -2.104,0.881c-1.408,0.717 -3.735,3.39 -3.494,13.241c0.002,0.108 0.004,0.202 0.006,0.28c0.044,0.04 0.088,0.08 0.132,0.119z"></path></g><g fill="#3a2221"><path d="M59.037,26.082c0,-0.235 -0.029,-0.464 -0.082,-0.686c0.051,-0.209 0.08,-0.425 0.08,-0.648c0,-1.31 -0.928,-2.421 -2.219,-2.832c-0.068,-1.66 -1.552,-2.991 -3.392,-3.029c-0.553,-1.239 -1.892,-2.113 -3.458,-2.113c-1.449,0 -2.701,0.749 -3.32,1.841c-0.253,-0.059 -0.517,-0.093 -0.79,-0.093c-1.757,0 -3.181,1.289 -3.181,2.88c0,0.054 0.006,0.106 0.009,0.159c-1.477,0.427 -2.548,1.68 -2.548,3.159c0,0.782 0.301,1.499 0.8,2.066c-0.384,0.47 -0.614,1.05 -0.614,1.68c0,1.564 1.4,2.831 3.127,2.831c0.448,0 0.873,-0.087 1.258,-0.241c0.053,1.315 1.245,2.368 2.71,2.368c0.295,0 0.578,-0.044 0.843,-0.122c0.687,0.795 1.754,1.307 2.955,1.307c1.89,0 3.449,-1.266 3.712,-2.911c1.24,-0.453 2.137,-1.51 2.249,-2.768c1.11,-0.553 1.861,-1.621 1.861,-2.848z"></path></g><g fill="#512c2b"><path d="M49.75,25.167c-11.456,0 -15.531,9.729 -12.101,19.299c0.16,0.446 0.917,0.368 0.955,-0.098c0.446,-5.432 3.027,-10 11.146,-7.684c8.119,-2.317 10.7,2.252 11.146,7.684c0.038,0.466 0.795,0.545 0.955,0.098c3.43,-9.57 -0.645,-19.299 -12.101,-19.299z"></path></g><g fill="#3a2221"><path d="M48.309,42.61c-2.247,-2.739 -10.72,-0.796 -10.729,-0.798c0.156,0.619 0.29,1.23 0.413,1.834c0.629,0.065 0.666,1.478 0.729,1.995c0.305,2.498 1.976,4.338 5.494,4.251c3.526,-0.183 4.35,-2.735 4.495,-4.342c0.157,-1.752 -0.404,-2.934 -0.402,-2.94zM47.907,45.678c-0.181,2.238 -1.555,3.548 -3.777,3.656c-0.225,0.012 -0.444,0.014 -0.652,0.005c-3.501,-0.006 -4.1,-3.07 -4.169,-5.008c-0.045,-1.109 0.748,-2.059 1.865,-2.169c0.643,-0.063 1.366,-0.063 2.202,-0.063c2.616,0 3.755,0.624 4.058,1.125c0.177,0.297 0.574,1.239 0.473,2.454zM50.789,45.55c0.145,1.606 0.969,4.158 4.495,4.342c3.518,0.087 5.189,-1.754 5.494,-4.251c0.062,-0.517 0.1,-1.93 0.729,-1.995c0.122,-0.604 0.257,-1.215 0.413,-1.834c-0.009,0.002 -8.481,-1.941 -10.729,0.798c0.001,0.006 -0.56,1.188 -0.402,2.94zM52.066,43.223c0.303,-0.501 1.442,-1.125 4.058,-1.125c0.836,0 1.559,0 2.202,0.063c1.118,0.11 1.91,1.06 1.865,2.169c-0.069,1.938 -0.668,5.002 -4.169,5.008c-0.208,0.009 -0.428,0.007 -0.652,-0.005c-2.222,-0.108 -3.596,-1.418 -3.777,-3.656c-0.102,-1.214 0.295,-2.156 0.473,-2.454z"></path><g><path d="M51.27,44.762c0,0 -0.575,-0.453 -1.579,-0.453c-0.941,0 -1.46,0.453 -1.46,0.453c-0.154,-0.425 -0.307,-0.848 -0.462,-1.272c1.321,0.001 2.642,0.001 3.963,0c-0.156,0.424 -0.309,0.847 -0.462,1.272z"></path></g></g><g><path d="M56.472,67.044c0,0 -2.499,0.708 -6.964,0.708c-4.465,0 -6.964,-0.708 -6.964,-0.708c-0.879,0 -1.599,-0.812 -1.599,-1.804v0c0,-0.992 0.719,-1.804 1.599,-1.804c0,0 4.37,0.525 6.853,0.525c2.483,0 7.074,-0.525 7.074,-0.525c0.879,0 1.599,0.812 1.599,1.804v0c0.001,0.992 -0.719,1.804 -1.598,1.804z" fill="#ed6f5a"></path><path d="M49.508,68.102c-4.188,0 -6.642,-0.609 -7.013,-0.708c-1.052,-0.029 -1.9,-0.984 -1.9,-2.154c0,-1.188 0.875,-2.153 1.949,-2.153c0.085,0.008 4.42,0.525 6.853,0.525c2.435,0 6.989,-0.519 7.035,-0.523c0.001,0 0.002,0 0.004,0c1.112,0 1.984,0.965 1.984,2.151c0,1.17 -0.848,2.125 -1.899,2.154c-0.371,0.098 -2.824,0.708 -7.013,0.708zM42.503,63.783c-0.647,0.002 -1.207,0.654 -1.207,1.456c0,0.802 0.56,1.455 1.249,1.455l0.095,0.013c0.024,0.007 2.515,0.695 6.868,0.695c4.354,0 6.844,-0.688 6.869,-0.695l0.095,-0.013c0.688,0 1.249,-0.653 1.249,-1.455c0,-0.802 -0.56,-1.454 -1.249,-1.454c-0.148,0.02 -4.6,0.525 -7.074,0.525c-2.476,0.001 -6.715,-0.505 -6.895,-0.527z" fill="#472b29"></path></g></g></g></svg>