<svg xmlns="http://www.w3.org/2000/svg"  viewBox="0 0 100 100" width="50px" height="50px"><path fill="#f1bc19" d="M79 12A1 1 0 1 0 79 14A1 1 0 1 0 79 12Z"/><path fill="#c0e5e4" d="M50 13A37 37 0 1 0 50 87A37 37 0 1 0 50 13Z"/><path fill="#f1bc19" d="M85 11A4 4 0 1 0 85 19A4 4 0 1 0 85 11Z"/><path fill="#00a5a5" d="M13 27A2 2 0 1 0 13 31A2 2 0 1 0 13 27Z"/><path fill="#fbcd59" d="M80 76A2 2 0 1 0 80 80 2 2 0 1 0 80 76zM26 72A4 4 0 1 0 26 80 4 4 0 1 0 26 72z"/><path fill="#00a5a5" d="M27 85A2 2 0 1 0 27 89A2 2 0 1 0 27 85Z"/><path fill="#fff" d="M58.5 78A2.5 2.5 0 1 0 58.5 83 2.5 2.5 0 1 0 58.5 78zM23.029 68A.971.971 0 1 0 23.029 69.94200000000001.971.971 0 1 0 23.029 68z"/><path fill="#f1bc19" d="M85 30A1 1 0 1 0 85 32A1 1 0 1 0 85 30Z"/><path fill="#fff" d="M78 66A2 2 0 1 0 78 70 2 2 0 1 0 78 66zM79 33A1 1 0 1 0 79 35 1 1 0 1 0 79 33z"/><g><path fill="#f4989e" d="M53,68h5v4h-5c-0.552,0-1,0.448-1,1v4h-4v-4c0-0.552-0.448-1-1-1h-5v-4h5c0.552,0,1-0.448,1-1v-5.11l-0.84-0.14c-9.344-1.478-15.954-9.826-15.083-19.447c0.756-8.353,7.42-15.195,15.749-16.175C58.725,24.846,68,33.354,68,44c0,8.89-6.37,16.36-15.16,17.75L52,61.89V67C52,67.552,52.448,68,53,68z"/></g><g><path fill="#f1d2cd" d="M50 30A14 14 0 1 0 50 58A14 14 0 1 0 50 30Z"/></g><g><path fill="#472b29" d="M50,26.4c9.705,0,17.6,7.895,17.6,17.6c0,8.692-6.233,15.992-14.82,17.358c-0.68,0.108-1.18,0.694-1.18,1.383V67c0,0.773,0.627,1.4,1.4,1.4h4.6v3.2H53c-0.773,0-1.4,0.627-1.4,1.4v3.6h-3.2V73c0-0.773-0.627-1.4-1.4-1.4h-4.6v-3.2H47c0.773,0,1.4-0.627,1.4-1.4v-4.259c0-0.688-0.5-1.275-1.18-1.383c-9.108-1.449-15.585-9.801-14.744-19.014c0.753-8.258,7.272-14.916,15.501-15.831C48.65,26.438,49.331,26.4,50,26.4 M50,25c-0.718,0-1.444,0.04-2.178,0.121c-8.845,0.984-15.932,8.232-16.74,17.095C30.146,52.472,37.372,61.209,47,62.741V67h-5c-0.552,0-1,0.448-1,1v4c0,0.552,0.448,1,1,1h5v4c0,0.552,0.448,1,1,1h4c0.552,0,1-0.448,1-1v-4h5c0.552,0,1-0.448,1-1v-4c0-0.552-0.448-1-1-1h-5v-4.259C62.064,61.299,69,53.47,69,44C69,33.507,60.493,25,50,25L50,25z"/></g><g><path fill="#472b29" d="M58.5,32.751c-0.103,0-0.205-0.031-0.294-0.095c-0.312-0.226-0.634-0.44-0.965-0.641c-0.236-0.143-0.312-0.451-0.169-0.687c0.144-0.236,0.452-0.31,0.687-0.169c0.354,0.215,0.7,0.444,1.035,0.687c0.223,0.162,0.272,0.475,0.111,0.698C58.807,32.68,58.654,32.751,58.5,32.751z"/></g><g><path fill="#472b29" d="M61.5,35.667c-0.149,0-0.298-0.067-0.396-0.195c-0.301-0.391-0.625-0.77-0.965-1.126c-0.191-0.2-0.184-0.517,0.017-0.707s0.518-0.184,0.706,0.017c0.364,0.382,0.713,0.788,1.035,1.207c0.168,0.219,0.127,0.533-0.092,0.701C61.714,35.633,61.606,35.667,61.5,35.667z"/></g><g><path fill="#472b29" d="M50,59c-8.271,0-15-6.729-15-15c0-8.271,6.729-15,15-15c1.969,0,3.883,0.376,5.689,1.117c0.256,0.104,0.378,0.396,0.273,0.652c-0.106,0.256-0.4,0.379-0.652,0.272C53.624,30.351,51.838,30,50,30c-7.72,0-14,6.28-14,14s6.28,14,14,14s14-6.28,14-14c0-2.207-0.499-4.319-1.481-6.275c-0.124-0.247-0.025-0.547,0.222-0.671c0.244-0.123,0.548-0.026,0.671,0.222C64.466,39.373,65,41.635,65,44C65,52.271,58.271,59,50,59z"/></g></svg>