<svg xmlns="http://www.w3.org/2000/svg" width="500" height="500" viewBox="0 0 100 100"><path fill="#f9dbd2" d="M49.478 12.746000000000002A37.445 37.445 0 1 0 49.478 87.636A37.445 37.445 0 1 0 49.478 12.746000000000002Z"/><path fill="#fff" d="M20.163 55.979A.886.886 0 1 0 20.163 57.751000000000005.886.886 0 1 0 20.163 55.979zM79.213 31.31A.684.684 0 1 0 79.213 32.678.684.684 0 1 0 79.213 31.31z"/><path fill="#f1bc19" d="M76.583 12.075000000000001A.886.886 0 1 0 76.583 13.847.886.886 0 1 0 76.583 12.075000000000001zM20.658 63.653A.886.886 0 1 0 20.658 65.425.886.886 0 1 0 20.658 63.653zM82.024 11.109A4.007 4.007 0 1 0 82.024 19.122999999999998 4.007 4.007 0 1 0 82.024 11.109z"/><path fill="#ee3e54" d="M86.031 22.302A1.884 1.884 0 1 0 86.031 26.07A1.884 1.884 0 1 0 86.031 22.302Z"/><path fill="#fbcd59" d="M77.046 74.717A1.884 1.884 0 1 0 77.046 78.485 1.884 1.884 0 1 0 77.046 74.717zM13.885 59.646A4.007 4.007 0 1 0 13.885 67.66 4.007 4.007 0 1 0 13.885 59.646z"/><path fill="#ee3e54" d="M24.123 85.904A1.884 1.884 0 1 0 24.123 89.672A1.884 1.884 0 1 0 24.123 85.904Z"/><path fill="#fff" d="M75.698 28.685000000000002A1.796 1.796 0 1 0 75.698 32.277 1.796 1.796 0 1 0 75.698 28.685000000000002zM17.626 49.003A2.541 2.541 0 1 0 17.626 54.084999999999994 2.541 2.541 0 1 0 17.626 49.003z"/><path fill="#67ba8c" d="M50,76.8c-3.617,0-6.926-2-8.634-5.219l-0.26-0.489l-0.536,0.141 c-0.811,0.213-1.648,0.32-2.491,0.32c-2.588,0-5.01-0.997-6.821-2.809c-2.411-2.41-3.365-5.979-2.49-9.313l0.141-0.536 l-0.489-0.26C25.2,56.926,23.2,53.616,23.2,50s1.999-6.926,5.218-8.636l0.489-0.26l-0.141-0.536 c-0.874-3.334,0.079-6.902,2.489-9.313c1.813-1.812,4.235-2.809,6.821-2.809c0.843,0,1.681,0.107,2.491,0.32l0.536,0.141 l0.26-0.489C43.074,25.2,46.384,23.2,50,23.2c3.617,0,6.926,2,8.634,5.219l0.26,0.489l0.536-0.141 c0.811-0.213,1.648-0.32,2.491-0.32c2.589,0,5.011,0.997,6.821,2.809c2.411,2.41,3.365,5.979,2.49,9.313l-0.141,0.536l0.489,0.26 C74.8,43.074,76.8,46.384,76.8,50s-1.999,6.926-5.218,8.636l-0.489,0.26l0.141,0.536c0.874,3.334-0.079,6.902-2.489,9.313 c-1.813,1.812-4.235,2.809-6.821,2.809c-0.843,0-1.681-0.107-2.491-0.32l-0.536-0.141l-0.26,0.489 C56.926,74.8,53.616,76.8,50,76.8z"/><path fill="#472b29" d="M50,23.9c3.357,0,6.429,1.857,8.016,4.847l0.52,0.979l1.073-0.282 c0.751-0.198,1.529-0.298,2.313-0.298c2.402,0,4.648,0.925,6.327,2.604c2.235,2.234,3.119,5.545,2.307,8.64l-0.281,1.072 l0.979,0.52C74.242,43.571,76.1,46.643,76.1,50c0,3.356-1.857,6.429-4.846,8.018l-0.978,0.52l0.281,1.072 c0.812,3.094-0.072,6.405-2.307,8.64c-1.681,1.679-3.927,2.604-6.327,2.604c-0.782,0-1.561-0.1-2.313-0.298l-1.072-0.281 l-0.52,0.979C56.429,74.243,53.357,76.1,50,76.1c-3.357,0-6.429-1.857-8.016-4.847l-0.52-0.979l-1.073,0.282 c-0.751,0.198-1.529,0.298-2.313,0.298c-2.4,0-4.647-0.925-6.327-2.604c-2.235-2.234-3.119-5.545-2.307-8.64l0.281-1.072 l-0.979-0.52C25.758,56.429,23.9,53.357,23.9,50c0-3.356,1.857-6.429,4.846-8.018l0.978-0.52l-0.281-1.072 c-0.812-3.094,0.072-6.405,2.307-8.64c1.681-1.679,3.927-2.604,6.327-2.604c0.782,0,1.561,0.1,2.313,0.298l1.072,0.281l0.52-0.979 C43.571,25.757,46.643,23.9,50,23.9 M50,22.5c-4,0-7.491,2.273-9.254,5.591c-0.875-0.23-1.771-0.344-2.669-0.344 c-2.654,0-5.303,1.002-7.316,3.014c-2.694,2.694-3.578,6.531-2.672,9.985C24.773,42.509,22.5,46,22.5,50s2.273,7.491,5.591,9.254 c-0.906,3.453-0.023,7.292,2.672,9.985c2.012,2.012,4.663,3.014,7.316,3.014c0.898,0,1.796-0.114,2.669-0.344 C42.509,75.227,46,77.5,50,77.5s7.491-2.273,9.254-5.591c0.875,0.23,1.771,0.344,2.669,0.344c2.654,0,5.303-1.002,7.316-3.014 c2.694-2.694,3.578-6.531,2.672-9.985C75.227,57.491,77.5,54,77.5,50s-2.273-7.491-5.591-9.254 c0.906-3.453,0.023-7.292-2.672-9.985c-2.012-2.013-4.663-3.014-7.316-3.014c-0.898,0-1.796,0.114-2.669,0.344 C57.491,24.773,54,22.5,50,22.5L50,22.5z"/><path fill="#472b29" d="M57.203 33.265c-.182 0-.354-.1-.441-.266L55.277 30.2C54.229 28.227 52.207 27 50 27s-4.23 1.227-5.28 3.201l-1.485 2.797c-.13.244-.434.337-.676.207-.244-.129-.337-.432-.207-.676l1.485-2.797C45.061 27.43 47.422 26 50 26s4.938 1.43 6.16 3.731l1.299 2.449 1.433-.376c.271-.073.54.09.61.356s-.089.54-.356.61l-1.815.477C57.288 33.26 57.245 33.265 57.203 33.265zM66.409 34.09c-.128 0-.256-.049-.354-.146-1.093-1.094-2.562-1.696-4.135-1.696-.276 0-.5-.224-.5-.5s.224-.5.5-.5c1.841 0 3.561.706 4.842 1.989.195.195.195.512 0 .707C66.665 34.041 66.537 34.09 66.409 34.09zM50 74c-2.578 0-4.938-1.43-6.16-3.731-.13-.244-.037-.547.207-.676.242-.131.546-.036.676.207C45.771 71.773 47.793 73 50 73s4.23-1.227 5.28-3.201l1.485-2.797c.107-.204.344-.313.568-.249l3.063.804c.495.13 1.008.196 1.526.196 1.572 0 3.041-.603 4.136-1.697 1.458-1.459 2.032-3.628 1.499-5.66l-.804-3.062c-.06-.225.044-.46.249-.568l2.796-1.485C71.773 54.23 73 52.207 73 50s-1.227-4.23-3.201-5.28l-2.797-1.485c-.205-.108-.309-.344-.249-.568l.804-3.063c.069-.268.341-.432.61-.356.267.07.427.343.356.61l-.703 2.68 2.447 1.3C72.57 45.061 74 47.422 74 50s-1.43 4.939-3.732 6.163l-2.446 1.3.703 2.679c.623 2.375-.051 4.912-1.759 6.621-1.283 1.283-3.003 1.99-4.843 1.99-.604 0-1.203-.077-1.781-.229l-2.679-.703-1.3 2.447C54.939 72.57 52.578 74 50 74z"/><g><path fill="#fdfcee" d="M48.438,58.358c-0.475,0-0.929-0.176-1.278-0.495l-8.413-8.411 c-0.758-0.688-0.814-1.892-0.11-2.666c0.36-0.396,0.873-0.622,1.406-0.622c0.474,0,0.927,0.176,1.277,0.494l7.101,7.183 l11.995-12.046c0.365-0.346,0.828-0.529,1.314-0.529c0.521,0,1.023,0.217,1.381,0.595c0.349,0.369,0.533,0.853,0.519,1.359 s-0.226,0.978-0.595,1.326L49.752,57.829C49.39,58.174,48.926,58.358,48.438,58.358z"/><path fill="#472b29" d="M61.731,41.766c0.371,0,0.742,0.147,1.017,0.439c0.531,0.562,0.506,1.447-0.057,1.978 L49.398,57.476c-0.269,0.255-0.614,0.383-0.96,0.383c-0.337,0-0.674-0.121-0.942-0.365l-8.396-8.396 c-0.572-0.519-0.614-1.405-0.094-1.977c0.276-0.303,0.656-0.458,1.036-0.458c0.336,0,0.672,0.12,0.94,0.364l7.436,7.523 L60.77,42.148C61.041,41.892,61.386,41.766,61.731,41.766 M61.731,40.766L61.731,40.766c-0.615,0-1.2,0.233-1.648,0.656 l-11.661,11.71l-6.727-6.807l-0.019-0.019l-0.02-0.018c-0.442-0.402-1.015-0.624-1.613-0.624c-0.674,0-1.321,0.286-1.775,0.784 c-0.432,0.475-0.653,1.089-0.622,1.729c0.03,0.641,0.308,1.231,0.783,1.661l8.361,8.363c0.476,0.435,1.05,0.657,1.649,0.657 c0.616,0,1.201-0.233,1.648-0.657L63.399,44.89c0.446-0.42,0.713-1.015,0.731-1.656c0.018-0.641-0.214-1.25-0.655-1.716 C63.024,41.04,62.388,40.766,61.731,40.766L61.731,40.766z"/></g></svg>