<svg xmlns="http://www.w3.org/2000/svg" width="500" height="500" viewBox="0 0 100 100"><path fill="#ee3e54" d="M13 27A2 2 0 1 0 13 31A2 2 0 1 0 13 27Z"/><path fill="#f1bc19" d="M77 12A1 1 0 1 0 77 14A1 1 0 1 0 77 12Z"/><path fill="#fce0a2" d="M50 13A37 37 0 1 0 50 87A37 37 0 1 0 50 13Z"/><path fill="#f1bc19" d="M83 11A4 4 0 1 0 83 19A4 4 0 1 0 83 11Z"/><path fill="#ee3e54" d="M87 22A2 2 0 1 0 87 26A2 2 0 1 0 87 22Z"/><path fill="#fbcd59" d="M81 74A2 2 0 1 0 81 78 2 2 0 1 0 81 74zM15 59A4 4 0 1 0 15 67 4 4 0 1 0 15 59z"/><path fill="#ee3e54" d="M25 85A2 2 0 1 0 25 89A2 2 0 1 0 25 85Z"/><path fill="#fff" d="M18.5 51A2.5 2.5 0 1 0 18.5 56A2.5 2.5 0 1 0 18.5 51Z"/><path fill="#f1bc19" d="M21 66A1 1 0 1 0 21 68A1 1 0 1 0 21 66Z"/><path fill="#fff" d="M80 33A1 1 0 1 0 80 35A1 1 0 1 0 80 33Z"/><g><path fill="#88bbed" d="M50.321,72.217c-3.133,0-6.185-0.653-9.07-1.94c-11.227-5.008-16.286-18.216-11.278-29.442 c3.582-8.029,11.579-13.218,20.373-13.218c3.133,0,6.185,0.653,9.07,1.94c5.438,2.425,9.607,6.823,11.737,12.385 c2.13,5.561,1.967,11.619-0.458,17.058C67.112,67.028,59.115,72.217,50.321,72.217z"/><path fill="#472b29" d="M50.348,26.917v1.4c3.033,0,5.988,0.632,8.783,1.879c5.268,2.35,9.305,6.61,11.368,11.997 c2.063,5.386,1.905,11.254-0.444,16.522c-3.469,7.777-11.215,12.803-19.734,12.803c-3.034,0-5.989-0.632-8.784-1.879 c-5.268-2.35-9.305-6.61-11.368-11.997c-2.063-5.386-1.905-11.254,0.444-16.522c3.469-7.777,11.215-12.802,19.734-12.803 L50.348,26.917 M50.346,26.917c-8.798,0-17.197,5.078-21.013,13.632c-5.173,11.598,0.034,25.194,11.632,30.367 c3.044,1.358,6.224,2,9.355,2c8.798,0,17.197-5.078,21.013-13.632c5.173-11.598-0.034-25.194-11.632-30.367 C56.657,27.559,53.477,26.916,50.346,26.917L50.346,26.917z"/><path fill="#cad34f" d="M29.628 47.935c-.035-.173.049-.587.116-.92.066-.327.129-.636.129-.872 0-.227.336-.745.559-1.089.17-.26.316-.486.383-.657.102-.259.496-.864.844-1.396.152-.233.298-.457.416-.647.101-.162.312-.501.096-.721-.069-.072-.152-.094-.246-.099.028-.027.051-.048.072-.062.241-.161 1.609-1.126 1.645-1.155.025-.026.612-.636-.034-1.841-.232-.427-.169-.543-.088-.69.053-.097.12-.218.12-.385 0-.112-.072-.214-.178-.251-.014-.005-.09-.031-.196-.046-.095-.011-.193.028-.251.107-2.63 3.568-4.076 7.79-4.183 12.21-.003.128.086.241.211.267.018.004.037.006.056.006.107 0 .204-.064.247-.164C29.489 49.188 29.699 48.302 29.628 47.935zM37.432 60.55c-.152-.03-.453-.25-.673-.411-.345-.252-.55-.395-.743-.395-.167 0-.517-.131-.732-.274-.089-.061-.206-.12-.331-.183-.173-.088-.409-.205-.477-.307-.105-.156-.365-.565-.536-.995l-.063-.168c-.106-.294-.169-.427-.708-1.031l-.104-.116c-.436-.492-.462-.522-.746-.656l-.192-.093c-.212-.106-.357-.211-.498-.314-.16-.116-.326-.238-.564-.333-.369-.151-.522-.267-.806-.514-.216-.19-.402-.301-.571-.344-.091-.02-.185.003-.252.067-.066.065-.094.159-.074.25.957 4.193 3.14 7.977 6.316 10.944.032.03.072.052.114.064.085.022.16.03.228.03.148 0 .261-.041.35-.074.077-.028.132-.048.209-.048.394 0 .878-.386.972-.464.084-.07.117-.186.082-.289l-.296-.885.298-1.112.396-1.112c.011-.029.016-.06.016-.09C38.048 61.592 38.031 60.672 37.432 60.55zM42.192 31.015c.075 0 .146-.031.196-.086 0 0 .31-.336.566-.664.074-.095.076-.227.004-.323-.07-.097-.198-.131-.311-.091-2.548.981-4.863 2.422-6.879 4.282-.029.027-.052.061-.066.097-.042.104-.078.202-.106.3-.038.156 0 .299.107.394.172.155.461.115.704.038l.623.278c.034.016.072.022.109.022.031 0 .062-.005.091-.016l.883-.32c.064-.023.116-.07.147-.131.002-.004.223-.431.719-.784.42-.301.525-.449.649-.658.034-.058.072-.122.132-.202.106-.142.106-.142.194-.231.101-.101.303-.303.828-.868C41.7 31.065 42.197 31.015 42.192 31.015L42.192 31.015zM65.16 58.623c-.105-.005-.216.042-.268.139l-.599 1.121c-.359.158-1.015.493-1.111.865-.069.279-.139.67-.159.788-.08.177-.401.903-.483 1.216-.082.326.012.879.256 1.105.083.077.181.117.284.117.043 0 .084-.007.126-.021.199-.066.409-.268.632-.479.115-.111.225-.217.312-.275.31-.207.737-.909.831-1.28.049-.195.127-.481.199-.746l.122-.452c0-.001 0-.002.001-.003.083-.333.169-.993.174-1.267 0-.269-.084-.612-.089-.627C65.36 58.715 65.269 58.636 65.16 58.623z"/><path fill="#cad34f" d="M61.758,31.673c-0.082-0.052-0.186-0.053-0.271-0.007l-0.169,0.098 c-0.152,0.09-0.559,0.325-0.652,0.31c-0.16-0.159-0.445-0.382-0.637-0.528c0.01-0.048,0.011-0.092,0.007-0.125 c-0.034-0.431-0.776-0.831-1.215-1.031c-0.029-0.014-0.061-0.021-0.093-0.022l-1.699-0.113h-1.2 c-0.112,0-0.273,0.015-0.455,0.031c-0.211,0.021-0.454,0.044-0.67,0.044c-0.285,0-0.68,0.189-1.209,0.456 c-0.208,0.106-0.444,0.225-0.539,0.249c-0.148,0.036-0.34,0.121-0.563,0.219c-0.239,0.105-0.599,0.263-0.735,0.263 c-0.415,0-0.879,0.54-1.037,0.743c-0.465,0.852-0.278,1.076-0.217,1.15c0.049,0.059,0.192,0.183,0.459,0.097 c0.402-0.137,0.807-0.115,0.861-0.095c0.042,0.121,0.101,0.281,0.162,0.441c0.042,0.111,0.084,0.223,0.119,0.319 c-0.036-0.002-0.078-0.001-0.117,0.012c-0.502,0.168-0.916,0.417-0.985,0.468c-0.464,0.467-0.935,0.88-1.069,0.996 c-0.142,0.051-0.539,0.205-0.827,0.423c-0.108,0.08-0.305,0.144-0.498,0.204c-0.298,0.096-0.606,0.194-0.764,0.415 c-0.316,0.443-0.198,0.868,0.017,1.14l-0.325,0.423l-0.267,0.187l-1.108,0.228l-0.706,0.119 c-0.076,0.013-0.142,0.061-0.181,0.126c-0.041,0.066-0.049,0.148-0.027,0.221c0.029,0.096-0.012,0.5-0.094,0.918v1.358 c0,0.12,0.08,0.225,0.196,0.257c0.281,0.077,1.217,0.331,1.474,0.331l0.115,0.003c0.31,0.013,0.88,0.035,1.238-0.322 c0.336-0.34,0.868-1.074,1.033-1.322c0.13-0.195,0.309-0.395,0.729-0.536c0.329-0.11,0.503-0.256,0.629-0.364 c0.076-0.065,0.119-0.099,0.169-0.115c0.145-0.049,0.69-0.151,1.061-0.215l0.549,0.368c-0.025,0.067-0.034,0.149-0.001,0.242 c0.069,0.196,0.267,0.34,1.025,0.469v0.406c0,0.075,0.031,0.146,0.086,0.196c0.056,0.051,0.131,0.08,0.203,0.069l0.982-0.08 c0.1-0.009,0.188-0.073,0.225-0.167c0.037-0.094,0.019-0.201-0.048-0.277l-0.569-0.642c-0.035-0.04-0.082-0.067-0.133-0.081 l-0.82-0.823l-0.011-0.117c0.307,0.172,0.693,0.385,0.878,0.476c0.243,0.122,0.733,0.456,0.906,0.575l0.445,1.053 c0.01,0.022,0.023,0.045,0.04,0.065l0.641,0.783c0.093,0.114,0.263,0.13,0.375,0.038c0.114-0.093,0.132-0.259,0.041-0.375 c-0.255-0.318-0.317-0.528-0.316-0.558c0-0.001,0.042-0.031,0.164-0.032c0.192,0.02,0.84,0.079,1.112-0.013 c0.199-0.065,0.369-0.126,0.567-0.215c-0.12,0.142-0.195,0.333-0.147,0.573c0.075,0.379,0.335,0.85,0.774,1.398 c0.067,0.086,0.132,0.176,0.193,0.263c0.25,0.349,0.563,0.784,0.962,0.516c0.108-0.07,0.326-0.205,0.534-0.332 c-0.012,0.158-0.011,0.328,0.021,0.483c0.043,0.205,0.061,0.462,0.069,0.649c-0.421,0.028-0.542,0.13-0.588,0.28 c-0.016,0.051-0.051,0.227,0.153,0.365c0.076,0.05,0.19,0.202,0.298,0.359c-0.143-0.16-0.357-0.281-0.596-0.399 c-0.159-0.078-0.325-0.159-0.439-0.246c-0.332-0.248-1.85-0.571-2.384-0.68c-0.348-0.212-0.8-0.408-1.065-0.196 c-0.666,0.53-2.359,0.21-2.782,0.041c-0.327-0.129-0.476-0.295-0.476-0.393c0-0.261-0.286-1.201-0.374-1.483 c-0.041-0.128-0.165-0.209-0.302-0.184c-0.294,0.052-0.82,0.136-0.977,0.136c-0.116,0-0.491-0.121-0.773-0.233 c-0.038-0.016-0.08-0.022-0.124-0.018c-0.088,0.009-0.859,0.085-1.215,0.265c-0.291,0.147-0.912,0.38-1.163,0.464 c-0.156,0.052-0.553,0.111-0.759,0.14c-0.818-0.307-1.463,0.447-1.72,0.957c-0.047,0.097-0.121,0.181-0.199,0.271 c-0.138,0.158-0.31,0.357-0.31,0.648c0,0.133-0.364,0.527-0.685,0.74c-0.045,0.03-0.113,0.072-0.196,0.123 c-0.515,0.316-1.036,0.654-1.244,1.002c-0.219,0.364-0.501,0.897-0.596,1.37c-0.084,0.426-0.084,0.769-0.084,1.333 c0,0.194-0.01,0.359-0.019,0.511c-0.018,0.287-0.034,0.557,0.022,0.898c0.095,0.588,1.015,1.906,1.256,2.208 c0.349,0.436,0.759,0.922,1.197,1.182c0.329,0.2,0.791,0.583,0.901,0.676c0.172,0.228,0.62,0.544,1.249,0.307 c0.249-0.093,0.508-0.149,0.758-0.204c0.376-0.081,0.763-0.167,1.127-0.374c0.55-0.31,0.905-0.421,1.046-0.427 c0.012,0.326,0.142,0.601,0.364,0.761c0.216,0.156,0.494,0.19,0.788,0.091c0.077-0.026,0.162-0.058,0.25-0.091 c0.154-0.058,0.449-0.169,0.598-0.184c-0.051,0.395,0.032,0.836,0.098,1.19c0.033,0.176,0.064,0.343,0.064,0.435 c0,0.06-0.003,0.119-0.005,0.178c-0.014,0.273-0.031,0.615,0.244,0.891c0.08,0.08,0.203,0.179,0.334,0.284 c0.154,0.122,0.44,0.349,0.473,0.411c0,0.201,0.067,1.08,0.268,1.483c0.189,0.376,0.253,0.714,0.168,0.884 c-0.167,0.331-0.471,1.197-0.493,1.27c-0.036,0.185-0.147,0.811-0.051,1.093c0.108,0.326,0.357,0.685,0.742,1.069 c0.194,0.194,0.274,0.414,0.359,0.645c0.065,0.18,0.133,0.366,0.255,0.527c0.184,0.247,0.538,0.976,0.667,1.253l0.41,0.741v0.651 c0,0.079,0.035,0.154,0.095,0.204c0.048,0.041,0.109,0.063,0.172,0.063c0.015,0,0.031-0.001,0.046-0.004 c0.057-0.01,1.376-0.241,1.702-0.323c0.377-0.097,1.268-0.689,1.612-1.031c0.173-0.174,0.253-0.329,0.323-0.464 c0.075-0.145,0.135-0.258,0.309-0.399c0.401-0.319,1.128-0.88,1.128-0.88c0.07-0.054,0.109-0.141,0.104-0.228l-0.07-1.101 l0.882-1.178l0.748-0.753c0.216-0.295,0.707-1.024,0.604-1.421c-0.052-0.214-0.161-1.178-0.226-1.817 c0.107-0.232,0.338-0.706,0.505-0.928c0.101-0.141,0.164-0.285,0.225-0.424c0.097-0.224,0.19-0.436,0.451-0.652 c0.437-0.363,0.748-0.79,0.976-1.101l0.194-0.263c0.257-0.343,0.66-0.879,0.804-1.094v-0.001c0.14-0.208,0.259-0.635,0.361-1.036 c0.022-0.07,0.016-0.151-0.022-0.218c-0.057-0.096-0.167-0.147-0.274-0.129l-1.269,0.211c-0.311-0.488-0.835-1.204-1.265-1.793 c-0.325-0.443-0.631-0.863-0.725-1.019c-0.207-0.346-0.435-1.074-0.53-1.452c-0.057-0.223-0.235-0.648-0.393-1.024 c-0.08-0.192-0.151-0.358-0.178-0.438c-0.003-0.011-0.013-0.026-0.017-0.037c0.864,1.244,1.977,2.905,2.09,3.13 c0.048,0.099,0.069,0.24,0.093,0.388c0.038,0.249,0.081,0.532,0.279,0.727c0.599,0.599,1.658,0.112,2.016-0.125 c0.073-0.048,0.199-0.117,0.343-0.201c0.448-0.253,0.805-0.461,0.986-0.642c0.159-0.156,0.159-0.156,0.332-0.268l0.267-0.174 c0.439-0.294,0.728-0.509,0.758-0.809c0.01-0.102-0.009-0.255-0.157-0.404c-0.155-0.156-0.496-0.735-0.675-1.061 c-0.057-0.105-0.175-0.157-0.293-0.133c-0.555,0.124-1.068-0.156-1.12-0.22c0-0.161-0.138-0.452-0.317-0.76 c0.165,0.106,0.329,0.242,0.488,0.375c0.356,0.295,0.691,0.574,1.088,0.574c0.373,0,0.565,0.111,1.027,0.377l0.122,0.07 c0.283,0.159,0.479,0.346,0.653,0.511c0.156,0.147,0.303,0.286,0.481,0.377c0.192,0.096,0.536,0.494,0.676,0.668 c0.132,0.306,0.487,1.156,0.547,1.403c0,0.001,0,0.002,0,0.003c0.042,0.16,0.153,0.42,0.281,0.719 c0.057,0.132,0.114,0.268,0.164,0.391c0.042,0.102,0.14,0.167,0.247,0.167c0.014,0,0.029-0.001,0.044-0.003 c0.124-0.021,0.216-0.124,0.223-0.248l0.019-0.305c0.025-0.305,0.045-0.614,0.045-0.924 C71.895,42.484,68.106,35.659,61.758,31.673z M58.529,39.63c-0.033-0.215-0.046-0.353,0.036-0.458 c0.27-0.333,0.618-0.476,0.856-0.556c0.216-0.07,0.786-0.348,1.006-0.457l0.256,0.047c-0.428,0.422-0.354,0.57-0.307,0.666 c0.027,0.053,0.133,0.22,0.406,0.151c0.167-0.031,0.767,0.235,1.138,0.516c0.07,0.052,0.068,0.185,0.047,0.301 c-0.295-0.029-0.827-0.083-1.211-0.14c-0.599-0.081-1.493,0.077-1.53,0.083c-0.029,0.005-0.057,0.016-0.082,0.029l-0.659,0.37 C58.587,40.011,58.554,39.792,58.529,39.63z M53.485,34.781c0.11,0.013,0.221-0.058,0.266-0.164 c0.001-0.003,0.156-0.376,0.372-0.663c0.081-0.11,0.161-0.227,0.234-0.335c0.11,0.231,0.222,0.474,0.257,0.578 c0.022,0.085-0.04,0.406-0.131,0.706c-0.361,0.224-0.786,0.455-0.861,0.472c-0.121-0.038-0.526-0.346-0.958-0.704 C52.862,34.717,53.128,34.758,53.485,34.781z"/><path fill="#cad34f" d="M49.091,34.752l-0.867-1.038l-0.472-0.916c-0.039-0.075-0.111-0.128-0.194-0.142 c-0.084-0.019-0.169,0.01-0.231,0.069l-0.441,0.415c-0.054,0.051-0.085,0.121-0.085,0.196v1.132l-0.789-0.223 c-0.131-0.04-0.266,0.027-0.32,0.151l-0.33,0.75c-0.037,0.083-0.028,0.18,0.022,0.255l0.329,0.501 c0.041,0.064,0.107,0.107,0.181,0.119c0.015,0.002,0.029,0.003,0.044,0.003c0.059,0,0.117-0.02,0.166-0.057l0.696-0.543v0.331 c0,0.082,0.038,0.159,0.101,0.21c0.065,0.052,0.147,0.072,0.228,0.052l1.449-0.334c0.064-0.014,0.119-0.051,0.157-0.103 l0.364-0.499C49.174,34.982,49.17,34.847,49.091,34.752z"/><path fill="#472b29" d="M64.667 50.5h-36.75c-.138 0-.25-.112-.25-.25S27.778 50 27.917 50h36.75c.138 0 .25.112.25.25S64.805 50.5 64.667 50.5zM50.5 41.79c-5.745 0-11.49-2.344-16.177-7.03-.098-.098-.098-.256 0-.354s.256-.098.354 0c9.169 9.168 22.478 9.168 31.646 0 .098-.098.256-.098.354 0s.098.256 0 .354C61.99 39.446 56.245 41.79 50.5 41.79z"/><path fill="#472b29" d="M49.969 72.25c-.058 0-.117-.021-.164-.062C42.677 66.008 38.75 58.142 38.75 50.039c0-8.065 3.926-15.911 11.055-22.092.104-.09.263-.08.353.024.09.104.079.263-.025.353C43.115 34.409 39.25 42.12 39.25 50.039c0 7.956 3.865 15.688 10.882 21.772.104.09.116.248.025.353C50.109 72.221 50.039 72.25 49.969 72.25zM51 72.25c-.07 0-.14-.029-.189-.086-.09-.104-.079-.263.025-.353 7.018-6.085 10.882-13.816 10.882-21.772 0-7.919-3.865-15.63-10.882-21.715-.104-.09-.116-.248-.025-.353s.249-.114.353-.024c7.129 6.181 11.055 14.026 11.055 22.092 0 8.103-3.926 15.969-11.055 22.149C51.117 72.229 51.059 72.25 51 72.25z"/><g><path fill="#472b29" d="M66.5,65.521c-0.064,0-0.128-0.024-0.177-0.073c-9.169-9.168-22.478-9.168-31.646,0 c-0.098,0.098-0.256,0.098-0.354,0s-0.098-0.256,0-0.354c9.373-9.373,22.98-9.373,32.354,0c0.098,0.098,0.098,0.256,0,0.354 C66.628,65.497,66.564,65.521,66.5,65.521z"/></g><g><path fill="#472b29" d="M72.667,50.5h-5.083c-0.138,0-0.25-0.112-0.25-0.25S67.445,50,67.583,50h5.083 c0.138,0,0.25,0.112,0.25,0.25S72.805,50.5,72.667,50.5z"/></g><g><path fill="#472b29" d="M50.5,72.75c-0.138,0-0.25-0.112-0.25-0.25v-27c0-0.138,0.112-0.25,0.25-0.25s0.25,0.112,0.25,0.25 v27C50.75,72.638,50.638,72.75,50.5,72.75z"/></g><g><path fill="#472b29" d="M50.5,32.75c-0.138,0-0.25-0.112-0.25-0.25v-5c0-0.138,0.112-0.25,0.25-0.25s0.25,0.112,0.25,0.25 v5C50.75,32.638,50.638,32.75,50.5,32.75z"/></g><g><path fill="#472b29" d="M50.5,42.75c-0.138,0-0.25-0.112-0.25-0.25v-7c0-0.138,0.112-0.25,0.25-0.25s0.25,0.112,0.25,0.25 v7C50.75,42.638,50.638,42.75,50.5,42.75z"/></g></g><g><path fill="#ee3e54" d="M77.458,38.072c0-2.677-1.107-5.092-2.884-6.825c-0.173-0.174-0.358-0.338-0.548-0.497 c-0.019-0.016-0.036-0.033-0.055-0.048c-0.191-0.157-0.391-0.305-0.598-0.447c-0.056-0.039-0.111-0.082-0.168-0.12 c-0.087-0.057-0.178-0.108-0.267-0.162c-1.463-0.909-3.184-1.547-5.034-1.547c-0.049,0-0.256,0.011-0.232,0.012 c-5.168,0.125-9.321,4.391-9.321,9.583c0,5.601,9.648,16.557,9.648,16.557S77.458,43.701,77.458,38.072z"/><path fill="#472b29" d="M68,55.001c-0.122,0-0.238-0.053-0.319-0.145c-0.398-0.451-9.753-11.142-9.753-16.836 c0-5.389,4.367-9.878,9.735-10.008v0.001C67.753,28,67.84,28,67.906,28c1.768,0,3.537,0.542,5.258,1.611 c0.139,0.082,0.208,0.124,0.275,0.168l0.122,0.086c0.271,0.189,0.482,0.345,0.682,0.508c0.257,0.219,0.45,0.392,0.632,0.573 c1.938,1.89,3.008,4.421,3.008,7.125c0,5.722-9.172,16.334-9.562,16.782C68.24,54.947,68.124,55,68.002,55H68V55.001z M67.723,28.858c-0.013,0.002-0.027,0.003-0.04,0.003c-4.911,0.119-8.906,4.227-8.906,9.159c0,4.808,7.556,13.949,9.221,15.903 c1.64-1.952,9.036-11.02,9.036-15.85c0-2.473-0.979-4.79-2.756-6.522c-0.168-0.169-0.344-0.324-0.524-0.476 c-0.232-0.195-0.424-0.335-0.62-0.47l-0.333-0.221c-1.67-1.035-3.288-1.534-4.895-1.534 C67.871,28.849,67.765,28.855,67.723,28.858z"/><path fill="#d6213f" d="M67.905 32.624A4.768 4.763 0 1 0 67.905 42.15A4.768 4.763 0 1 0 67.905 32.624Z"/><path fill="#472b29" d="M67.905,42.524c-2.836,0-5.143-2.304-5.143-5.137s2.307-5.138,5.143-5.138 s5.143,2.305,5.143,5.138S70.741,42.524,67.905,42.524z M67.905,32.998c-2.422,0-4.393,1.969-4.393,4.389 c0,2.419,1.971,4.388,4.393,4.388s4.393-1.969,4.393-4.388C72.298,34.967,70.328,32.998,67.905,32.998z"/><g><path fill="#fdfcee" d="M67.905 34.62A2.77 2.767 0 1 0 67.905 40.154A2.77 2.767 0 1 0 67.905 34.62Z"/><path fill="#472b29" d="M67.905,40.403c-1.665,0-3.02-1.353-3.02-3.017s1.355-3.018,3.02-3.018s3.02,1.353,3.02,3.018 S69.57,40.403,67.905,40.403z M67.905,34.869c-1.39,0-2.52,1.13-2.52,2.518c0,1.388,1.13,2.517,2.52,2.517s2.52-1.129,2.52-2.517 C70.425,35.999,69.295,34.869,67.905,34.869z"/></g></g></svg>