<svg xmlns="http://www.w3.org/2000/svg"  viewBox="0 0 100 100" width="500px" height="500px"><circle cx="77" cy="13" r="1" fill="#f1bc19"/><circle cx="50" cy="50" r="37" fill="#e4e4f9"/><circle cx="83" cy="15" r="4" fill="#f1bc19"/><circle cx="87" cy="24" r="2" fill="#8889b9"/><circle cx="81" cy="76" r="2" fill="#fbcd59"/><circle cx="15" cy="63" r="4" fill="#fbcd59"/><circle cx="25" cy="87" r="2" fill="#8889b9"/><circle cx="18.5" cy="51.5" r="2.5" fill="#fff"/><circle cx="79.5" cy="33.5" r="1.5" fill="#fff"/><path fill="#ffc107" d="M26.19,49.3c-0.271,0-0.49-0.22-0.49-0.49v-0.595c0-6.506,5.293-11.8,11.8-11.8 s11.8,5.293,11.8,11.8V49.3H26.19z"/><path fill="#472b29" d="M37.5,37.114c6.121,0,11.1,4.979,11.1,11.1V48.6H26.4v-0.386 C26.4,42.094,31.379,37.114,37.5,37.114 M37.5,35.714c-6.904,0-12.5,5.596-12.5,12.5c0,0,0,0.404,0,0.595 c0,0.657,0.533,1.19,1.19,1.19C26.848,50,50,50,50,50s0-0.533,0-1.19c0-0.192,0-0.595,0-0.595 C50,41.311,44.404,35.714,37.5,35.714L37.5,35.714z"/><path fill="#4caf50" d="M48.214,74.3c-6.506,0-11.8-5.293-11.8-11.8s5.293-11.8,11.8-11.8H49.3v23.11 c0,0.271-0.22,0.49-0.49,0.49C48.81,74.3,48.214,74.3,48.214,74.3z"/><path fill="#472b29" d="M48.6,51.4v22.2h-0.386c-6.121,0-11.1-4.979-11.1-11.1s4.979-11.1,11.1-11.1L48.6,51.4 M50,50 c0,0-0.533,0-1.19,0c-0.192,0-0.595,0-0.595,0c-6.904,0-12.5,5.596-12.5,12.5S41.311,75,48.214,75c0,0,0.404,0,0.595,0 c0.657,0,1.19-0.533,1.19-1.19C50,73.152,50,50,50,50L50,50z"/><path fill="#1976d2" d="M62.5,63.585c-6.506,0-11.8-5.293-11.8-11.8V50.7h23.11c0.271,0,0.49,0.22,0.49,0.49v0.595 C74.3,58.292,69.006,63.585,62.5,63.585z"/><path fill="#472b29" d="M73.6,51.4v0.386c0,6.121-4.979,11.1-11.1,11.1s-11.1-4.979-11.1-11.1V51.4H73.6 M73.81,50 C73.152,50,50,50,50,50s0,0.533,0,1.19c0,0.192,0,0.595,0,0.595c0,6.904,5.596,12.5,12.5,12.5S75,58.689,75,51.786 c0,0,0-0.404,0-0.595C75,50.533,74.467,50,73.81,50L73.81,50z"/><path fill="#ff3d00" d="M50.7,49.3V26.19c0-0.271,0.22-0.49,0.49-0.49h0.595c6.506,0,11.8,5.293,11.8,11.8 s-5.293,11.8-11.8,11.8H50.7z"/><path fill="#472b29" d="M51.786,26.4c6.121,0,11.1,4.979,11.1,11.1s-4.979,11.1-11.1,11.1H51.4V26.4H51.786 M51.786,25 c0,0-0.404,0-0.595,0C50.533,25,50,25.533,50,26.19C50,26.848,50,50,50,50s0.533,0,1.19,0c0.192,0,0.595,0,0.595,0 c6.904,0,12.5-5.596,12.5-12.5S58.689,25,51.786,25L51.786,25z"/><g><path fill="#472b29" d="M53.782,46.708c-0.222,0-0.424-0.148-0.483-0.373c-0.07-0.267,0.089-0.541,0.356-0.61 c0.153-0.041,0.304-0.085,0.454-0.133c0.263-0.083,0.545,0.061,0.629,0.323c0.084,0.263-0.061,0.544-0.323,0.629 c-0.167,0.054-0.335,0.103-0.506,0.147C53.867,46.703,53.824,46.708,53.782,46.708z M56.912,45.192 c-0.152,0-0.301-0.068-0.399-0.199c-0.167-0.221-0.123-0.534,0.098-0.7c0.503-0.379,0.964-0.815,1.371-1.294 c0.179-0.209,0.494-0.236,0.705-0.058c0.21,0.179,0.236,0.495,0.058,0.705c-0.455,0.536-0.97,1.021-1.531,1.445 C57.123,45.16,57.017,45.192,56.912,45.192z M59.892,41.258c-0.061,0-0.122-0.011-0.181-0.034c-0.257-0.1-0.385-0.39-0.285-0.647 C59.807,39.597,60,38.562,60,37.5c0-4.183-2.991-7.71-7.112-8.388c-0.272-0.044-0.457-0.302-0.412-0.574 c0.044-0.273,0.3-0.465,0.574-0.412C57.657,28.882,61,32.825,61,37.5c0,1.186-0.216,2.343-0.642,3.439 C60.281,41.137,60.092,41.258,59.892,41.258z"/></g><g><path fill="#472b29" d="M28.657,47.531c-0.027,0-0.054-0.002-0.082-0.007c-0.272-0.044-0.457-0.302-0.412-0.574 c0.756-4.606,4.698-7.95,9.374-7.95c1.187,0,2.344,0.216,3.44,0.642c0.257,0.1,0.385,0.39,0.285,0.647s-0.392,0.386-0.647,0.285 C39.635,40.193,38.599,40,37.537,40c-4.183,0-7.71,2.991-8.387,7.112C29.11,47.357,28.898,47.531,28.657,47.531z M46.246,46.718 c-0.222,0-0.424-0.148-0.483-0.373c-0.041-0.153-0.085-0.304-0.133-0.454c-0.084-0.263,0.061-0.544,0.323-0.629 c0.266-0.083,0.545,0.061,0.629,0.323c0.054,0.167,0.103,0.335,0.147,0.506c0.07,0.267-0.089,0.541-0.356,0.61 C46.331,46.713,46.288,46.718,46.246,46.718z M44.73,43.588c-0.152,0-0.301-0.068-0.399-0.199 c-0.379-0.503-0.815-0.964-1.294-1.371c-0.21-0.179-0.236-0.495-0.058-0.705c0.18-0.21,0.495-0.236,0.705-0.058 c0.536,0.455,1.021,0.97,1.445,1.531c0.167,0.221,0.123,0.534-0.098,0.7C44.94,43.556,44.835,43.588,44.73,43.588z"/></g><g><path fill="#472b29" d="M39.5,62.963c-0.276,0-0.5-0.224-0.5-0.5c0-1.065,0.175-2.111,0.52-3.108 c0.09-0.26,0.375-0.399,0.636-0.309s0.399,0.375,0.309,0.636C40.157,60.574,40,61.509,40,62.463 C40,62.739,39.776,62.963,39.5,62.963z M41.425,57.398c-0.108,0-0.217-0.035-0.309-0.107c-0.217-0.17-0.254-0.485-0.083-0.702 c0.435-0.552,0.932-1.057,1.477-1.5c0.215-0.174,0.529-0.141,0.703,0.072c0.174,0.214,0.142,0.529-0.072,0.703 c-0.488,0.397-0.934,0.85-1.323,1.344C41.72,57.333,41.573,57.398,41.425,57.398z M45.422,54.503c-0.204,0-0.396-0.126-0.47-0.329 c-0.095-0.26,0.04-0.546,0.299-0.641c0.165-0.06,0.332-0.116,0.501-0.167c0.265-0.081,0.542,0.071,0.622,0.336 c0.079,0.265-0.071,0.543-0.336,0.622c-0.151,0.045-0.299,0.095-0.446,0.148C45.536,54.493,45.479,54.503,45.422,54.503z"/></g><g><path fill="#472b29" d="M62.463,61c-1.187,0-2.344-0.216-3.44-0.642c-0.257-0.1-0.385-0.39-0.285-0.647 c0.1-0.258,0.39-0.387,0.647-0.285C60.365,59.807,61.401,60,62.463,60c4.183,0,7.71-2.991,8.387-7.112 c0.044-0.273,0.301-0.465,0.574-0.412c0.272,0.044,0.457,0.302,0.412,0.574C71.081,57.657,67.138,61,62.463,61z M56.64,58.863 c-0.115,0-0.229-0.039-0.324-0.119c-0.536-0.455-1.021-0.97-1.445-1.531c-0.167-0.221-0.123-0.534,0.098-0.7 c0.221-0.167,0.534-0.123,0.7,0.098c0.379,0.503,0.815,0.964,1.294,1.371c0.21,0.179,0.236,0.495,0.058,0.705 C56.922,58.803,56.782,58.863,56.64,58.863z M53.894,54.762c-0.211,0-0.408-0.135-0.476-0.347 c-0.054-0.167-0.103-0.335-0.147-0.506c-0.07-0.267,0.089-0.541,0.356-0.61c0.268-0.069,0.541,0.089,0.61,0.356 c0.041,0.153,0.085,0.304,0.133,0.454c0.084,0.263-0.061,0.544-0.323,0.629C53.996,54.754,53.944,54.762,53.894,54.762z"/></g></svg>